<svg width="513" height="500" viewBox="0 0 513 500" fill="none" xmlns="http://www.w3.org/2000/svg">
<g opacity="0.1">
<path d="M337.138 9.26165C335.635 6.80531 333.102 5.11754 330.096 4.56964C327.09 4.02173 323.859 4.65857 321.111 6.34006L258.961 44.3804C256.214 46.0619 254.176 48.6503 253.297 51.5762C252.417 54.5021 252.768 57.5258 254.271 59.9822C255.775 62.4385 258.308 64.1263 261.313 64.6742C264.319 65.2221 267.551 64.5852 270.298 62.9037L322.09 31.2034L350.434 77.5117C351.938 79.968 354.471 81.6558 357.477 82.2037C360.482 82.7516 363.714 82.1148 366.461 80.4333C369.209 78.7518 371.246 76.1634 372.126 73.2375C373.005 70.3116 372.655 67.2879 371.151 64.8316L337.138 9.26165ZM88.5362 161.423C87.0328 158.967 84.4996 157.279 81.4939 156.731C78.4882 156.183 75.2563 156.82 72.5091 158.502L10.3585 196.542C7.61127 198.223 5.57381 200.812 4.69434 203.738C3.81484 206.664 4.16539 209.687 5.66884 212.144L39.6814 267.714C41.1849 270.17 43.718 271.858 46.7237 272.406C49.7294 272.953 52.9614 272.317 55.7086 270.635C58.4558 268.954 60.4933 266.365 61.3728 263.439C62.2523 260.513 61.9017 257.49 60.3983 255.033L32.0545 208.725L83.8466 177.025C86.5938 175.343 88.6313 172.755 89.5108 169.829C90.3902 166.903 90.0397 163.88 88.5362 161.423ZM457.162 228.62C454.414 230.301 452.377 232.89 451.497 235.815C450.618 238.741 450.968 241.765 452.472 244.221L480.816 290.53L429.024 322.23C426.276 323.911 424.239 326.5 423.359 329.426C422.48 332.352 422.83 335.375 424.334 337.832C425.837 340.288 428.371 341.976 431.376 342.524C434.382 343.072 437.614 342.435 440.361 340.753L502.512 302.713C505.259 301.031 507.296 298.443 508.176 295.517C509.055 292.591 508.705 289.568 507.201 287.111L473.189 231.541C471.685 229.085 469.152 227.397 466.146 226.849C463.141 226.301 459.909 226.938 457.162 228.62ZM146.409 418.822C143.662 420.503 141.624 423.091 140.745 426.017C139.865 428.943 140.216 431.967 141.719 434.423L175.732 489.993C177.235 492.45 179.768 494.137 182.774 494.685C185.78 495.233 189.012 494.596 191.759 492.915L253.909 454.874C256.657 453.193 258.694 450.605 259.574 447.679C260.453 444.753 260.103 441.729 258.599 439.273C257.096 436.816 254.562 435.129 251.557 434.581C248.551 434.033 245.319 434.67 242.572 436.351L190.78 468.051L162.436 421.743C160.933 419.287 158.399 417.599 155.394 417.051C152.388 416.503 149.156 417.14 146.409 418.822ZM293.952 124.814L273.236 137.494L284.573 156.017L305.29 143.337L293.952 124.814Z" fill="#67665D"/>
<path d="M209.127 125.807L312.711 62.4069L369.399 155.023L265.815 218.424L209.127 125.807ZM303.332 93.6103L241.181 131.651L275.194 187.221L337.344 149.18L303.332 93.6103ZM352.598 267.157L373.315 254.477L384.653 273L363.936 285.68L352.598 267.157Z" fill="#67665D"/>
<path d="M288.489 255.471L392.074 192.07L448.761 284.687L345.177 348.087L288.489 255.471ZM382.694 223.273L320.544 261.314L354.556 316.884L416.707 278.843L382.694 223.273ZM148.934 213.575L128.217 226.255L139.555 244.778L160.272 232.098L148.934 213.575Z" fill="#67665D"/>
<path d="M167.693 151.168L64.1085 214.568L120.796 307.185L224.38 243.784L167.693 151.168ZM158.313 182.371L192.326 237.941L130.175 275.982L96.1629 220.412L158.313 182.371ZM256.435 249.627L279.11 286.674L258.393 299.354L269.731 317.878L290.447 305.197L301.785 323.721L260.351 349.081L237.676 312.034L216.959 324.714L239.634 361.761L218.917 374.441L207.58 355.918L166.146 381.278L154.809 362.755L216.959 324.714L194.284 287.668L256.435 249.627ZM237.676 312.034L258.393 299.354L247.055 280.831L226.339 293.511L237.676 312.034ZM177.484 399.801L198.201 387.121L209.538 405.645L250.972 380.284L262.309 398.808L200.159 436.848L177.484 399.801ZM283.026 386.128L271.689 367.604L313.122 342.244L324.46 360.767L283.026 386.128Z" fill="#67665D"/>
<path d="M184.905 318.871L143.471 344.231L132.134 325.708L173.567 300.348L184.905 318.871Z" fill="#67665D"/>
</g>
</svg>
