<svg width="218" height="210" viewBox="0 0 218 210" fill="none" xmlns="http://www.w3.org/2000/svg">
<g opacity="0.1">
<path d="M1.98336 75.2996C1.45734 74.1549 1.46145 72.8234 1.99477 71.598C2.5281 70.3725 3.54696 69.3536 4.82722 68.7653L33.7906 55.4559C35.0708 54.8676 36.5076 54.7581 37.7848 55.1515C39.0621 55.5449 40.0751 56.409 40.6012 57.5537C41.1272 58.6985 41.1231 60.03 40.5897 61.2554C40.0564 62.4808 39.0376 63.4998 37.7573 64.0881L13.6212 75.1793L23.538 96.7598C24.064 97.9045 24.0599 99.236 23.5266 100.461C22.9932 101.687 21.9744 102.706 20.6941 103.294C19.4139 103.882 17.9771 103.992 16.6998 103.599C15.4226 103.205 14.4096 102.341 13.8835 101.196L1.98336 75.2996ZM117.837 22.062C117.311 20.9173 117.315 19.5858 117.848 18.3603C118.381 17.1349 119.4 16.116 120.681 15.5277L149.644 2.21825C150.924 1.62993 152.361 1.52045 153.638 1.91387C154.915 2.3073 155.929 3.17141 156.455 4.31612L168.355 30.2128C168.881 31.3575 168.877 32.689 168.343 33.9144C167.81 35.1398 166.791 36.1588 165.511 36.7471C164.231 37.3354 162.794 37.4449 161.517 37.0515C160.239 36.658 159.226 35.7939 158.7 34.6492L148.783 13.0687L124.647 24.1599C123.367 24.7482 121.93 24.8577 120.653 24.4642C119.376 24.0708 118.363 23.2067 117.837 22.062ZM52.4279 172.352C53.7082 171.764 55.145 171.654 56.4222 172.047C57.6994 172.441 58.7125 173.305 59.2385 174.45L69.1553 196.03L93.2915 184.939C94.5717 184.351 96.0085 184.241 97.2857 184.635C98.563 185.028 99.576 185.892 100.102 187.037C100.628 188.182 100.624 189.513 100.091 190.739C99.5573 191.964 98.5384 192.983 97.2582 193.571L68.2948 206.881C67.0146 207.469 65.5778 207.578 64.3006 207.185C63.0233 206.792 62.0103 205.928 61.4842 204.783L49.5841 178.886C49.058 177.741 49.0622 176.41 49.5955 175.185C50.1288 173.959 51.1477 172.94 52.4279 172.352ZM197.245 105.805C198.525 105.216 199.962 105.107 201.239 105.5C202.516 105.894 203.529 106.758 204.055 107.903L215.955 133.799C216.481 134.944 216.477 136.276 215.944 137.501C215.411 138.726 214.392 139.745 213.112 140.334L184.148 153.643C182.868 154.231 181.431 154.341 180.154 153.947C178.877 153.554 177.864 152.69 177.338 151.545C176.812 150.4 176.816 149.069 177.349 147.844C177.882 146.618 178.901 145.599 180.181 145.011L204.318 133.92L194.401 112.339C193.875 111.194 193.879 109.863 194.412 108.637C194.946 107.412 195.964 106.393 197.245 105.805ZM54.4847 87.7665L64.1391 83.33L68.1059 91.9622L58.4514 96.3987L54.4847 87.7665Z" fill="#67665D"/>
<path d="M75.5147 57.1927L27.2424 79.375L47.0761 122.536L95.3483 100.354L75.5147 57.1927ZM40.8636 83.5707L69.8269 70.2613L81.7271 96.158L52.7638 109.467L40.8636 83.5707ZM91.9063 143.756L82.2519 148.192L86.2186 156.824L95.873 152.388L91.9063 143.756Z" fill="#67665D"/>
<path d="M103.282 117.618L55.0094 139.8L74.843 182.962L123.115 160.779L103.282 117.618ZM68.6306 143.996L97.5939 130.687L109.494 156.583L80.5308 169.893L68.6306 143.996ZM122.066 56.7112L131.72 52.2747L135.687 60.9069L126.033 65.3434L122.066 56.7112Z" fill="#67665D"/>
<path d="M94.8234 48.3198L143.096 26.1374L162.929 69.2985L114.657 91.4808L94.8234 48.3198ZM108.445 52.5155L120.345 78.4121L149.308 65.1027L137.408 39.2061L108.445 52.5155ZM108.969 104.549L116.903 121.814L126.557 117.377L130.524 126.01L120.869 130.446L124.836 139.078L144.145 130.205L136.212 112.941L145.866 108.505L153.8 125.769L163.454 121.332L159.487 112.7L178.796 103.827L174.829 95.1951L145.866 108.505L137.933 91.2401L108.969 104.549ZM136.212 112.941L126.557 117.377L122.59 108.745L132.245 104.309L136.212 112.941ZM182.763 112.46L173.108 116.896L177.075 125.528L157.766 134.401L161.733 143.033L190.696 129.724L182.763 112.46ZM152.079 147.47L148.112 138.838L128.803 147.711L132.77 156.343L152.079 147.47Z" fill="#67665D"/>
<path d="M151.554 95.4358L170.863 86.5629L166.896 77.9307L147.587 86.8036L151.554 95.4358Z" fill="#67665D"/>
</g>
</svg>
