<svg width="472" height="455" viewBox="0 0 472 455" fill="none" xmlns="http://www.w3.org/2000/svg">
<g opacity="0.1">
<path d="M467.256 163.621C468.399 161.133 468.39 158.24 467.231 155.577C466.073 152.915 463.859 150.7 461.077 149.422L398.141 120.502C395.359 119.223 392.237 118.985 389.462 119.84C386.687 120.695 384.485 122.573 383.342 125.06C382.199 127.548 382.208 130.441 383.367 133.104C384.526 135.766 386.74 137.981 389.522 139.259L441.968 163.359L420.42 210.252C419.277 212.74 419.285 215.633 420.444 218.296C421.603 220.958 423.817 223.173 426.599 224.451C429.381 225.729 432.503 225.967 435.278 225.112C438.054 224.257 440.255 222.38 441.398 219.892L467.256 163.621ZM215.515 47.9391C216.658 45.4518 216.649 42.5585 215.49 39.8957C214.331 37.2329 212.117 35.0188 209.335 33.7405L146.4 4.82006C143.618 3.5417 140.496 3.30379 137.721 4.15868C134.945 5.01356 132.744 6.89123 131.601 9.37859L105.743 65.6502C104.6 68.1375 104.609 71.0308 105.768 73.6936C106.927 76.3564 109.141 78.5705 111.922 79.8488C114.704 81.1272 117.826 81.3651 120.602 80.5102C123.377 79.6553 125.578 77.7777 126.721 75.2903L148.27 28.3973L200.716 52.4977C203.498 53.776 206.62 54.0139 209.395 53.159C212.171 52.3042 214.372 50.4265 215.515 47.9391ZM357.644 374.508C354.862 373.23 351.74 372.992 348.964 373.847C346.189 374.702 343.988 376.58 342.845 379.067L321.296 425.96L268.85 401.86C266.068 400.581 262.946 400.343 260.171 401.198C257.396 402.053 255.194 403.931 254.051 406.418C252.908 408.905 252.917 411.799 254.076 414.462C255.235 417.124 257.449 419.338 260.231 420.617L323.166 449.537C325.948 450.816 329.07 451.053 331.845 450.199C334.621 449.344 336.822 447.466 337.965 444.979L363.823 388.707C364.966 386.22 364.957 383.326 363.798 380.664C362.64 378.001 360.426 375.787 357.644 374.508ZM42.9671 229.906C40.1852 228.628 37.0632 228.39 34.2878 229.245C31.5125 230.1 29.3112 231.978 28.1682 234.465L2.30992 290.736C1.16692 293.224 1.17581 296.117 2.33472 298.78C3.4936 301.443 5.70752 303.657 8.48944 304.935L71.4248 333.856C74.2067 335.134 77.3287 335.372 80.104 334.517C82.8794 333.662 85.0807 331.784 86.2237 329.297C87.3667 326.81 87.3578 323.916 86.1989 321.254C85.04 318.591 82.8261 316.377 80.0442 315.098L27.5981 290.998L49.1466 244.105C50.2896 241.618 50.2807 238.724 49.1218 236.062C47.963 233.399 45.749 231.185 42.9671 229.906ZM353.174 190.71L332.196 181.07L323.577 199.827L344.555 209.468L353.174 190.71Z" fill="#67665D"/>
<path d="M307.478 124.276L412.37 172.476L369.273 266.262L264.381 218.062L307.478 124.276ZM382.772 181.593L319.837 152.673L293.979 208.945L356.914 237.865L382.772 181.593ZM271.86 312.371L292.838 322.011L284.219 340.768L263.241 331.128L271.86 312.371Z" fill="#67665D"/>
<path d="M247.142 255.576L352.034 303.777L308.937 397.563L204.045 349.362L247.142 255.576ZM322.436 312.894L259.501 283.973L233.643 340.245L296.578 369.165L322.436 312.894ZM206.325 123.229L185.347 113.589L176.728 132.347L197.706 141.987L206.325 123.229Z" fill="#67665D"/>
<path d="M265.521 104.995L160.629 56.7947L117.532 150.581L222.424 198.781L265.521 104.995ZM235.923 114.112L210.065 170.384L147.13 141.464L172.988 85.192L235.923 114.112ZM234.783 227.179L217.544 264.693L196.566 255.053L187.946 273.81L208.925 283.45L200.305 302.207L158.348 282.927L175.587 245.413L154.609 235.773L137.37 273.287L116.392 263.647L125.011 244.89L83.0541 225.609L91.6735 206.852L154.609 235.773L171.848 198.258L234.783 227.179ZM175.587 245.413L196.566 255.053L205.185 236.296L184.207 226.656L175.587 245.413ZM74.4347 244.367L95.4131 254.007L86.7937 272.764L128.751 292.044L120.131 310.801L57.1959 281.881L74.4347 244.367ZM141.11 320.442L149.729 301.684L191.686 320.965L183.067 339.722L141.11 320.442Z" fill="#67665D"/>
<path d="M142.25 207.375L100.293 188.095L108.912 169.338L150.869 188.618L142.25 207.375Z" fill="#67665D"/>
</g>
</svg>
