<svg width="313" height="279" viewBox="0 0 313 279" fill="none" xmlns="http://www.w3.org/2000/svg">
<g opacity="0.1">
<path d="M0 8.71875C0 6.40639 1.02736 4.18875 2.85607 2.55366C4.68478 0.91858 7.16505 0 9.75123 0L68.2586 0C70.8448 0 73.3251 0.91858 75.1538 2.55366C76.9825 4.18875 78.0099 6.40639 78.0099 8.71875C78.0099 11.0311 76.9825 13.2488 75.1538 14.8838C73.3251 16.5189 70.8448 17.4375 68.2586 17.4375H19.5025V61.0312C19.5025 63.3436 18.4751 65.5613 16.6464 67.1963C14.8177 68.8314 12.3374 69.75 9.75123 69.75C7.16505 69.75 4.68478 68.8314 2.85607 67.1963C1.02736 65.5613 0 63.3436 0 61.0312V8.71875ZM234.03 8.71875C234.03 6.40639 235.057 4.18875 236.886 2.55366C238.714 0.91858 241.195 0 243.781 0L302.288 0C304.874 0 307.355 0.91858 309.183 2.55366C311.012 4.18875 312.039 6.40639 312.039 8.71875V61.0312C312.039 63.3436 311.012 65.5613 309.183 67.1963C307.355 68.8314 304.874 69.75 302.288 69.75C299.702 69.75 297.222 68.8314 295.393 67.1963C293.564 65.5613 292.537 63.3436 292.537 61.0312V17.4375H243.781C241.195 17.4375 238.714 16.5189 236.886 14.8838C235.057 13.2488 234.03 11.0311 234.03 8.71875ZM9.75123 209.25C12.3374 209.25 14.8177 210.169 16.6464 211.804C18.4751 213.439 19.5025 215.656 19.5025 217.969V261.562H68.2586C70.8448 261.562 73.3251 262.481 75.1538 264.116C76.9825 265.751 78.0099 267.969 78.0099 270.281C78.0099 272.594 76.9825 274.811 75.1538 276.446C73.3251 278.081 70.8448 279 68.2586 279H9.75123C7.16505 279 4.68478 278.081 2.85607 276.446C1.02736 274.811 0 272.594 0 270.281V217.969C0 215.656 1.02736 213.439 2.85607 211.804C4.68478 210.169 7.16505 209.25 9.75123 209.25ZM302.288 209.25C304.874 209.25 307.355 210.169 309.183 211.804C311.012 213.439 312.039 215.656 312.039 217.969V270.281C312.039 272.594 311.012 274.811 309.183 276.446C307.355 278.081 304.874 279 302.288 279H243.781C241.195 279 238.714 278.081 236.886 276.446C235.057 274.811 234.03 272.594 234.03 270.281C234.03 267.969 235.057 265.751 236.886 264.116C238.714 262.481 241.195 261.562 243.781 261.562H292.537V217.969C292.537 215.656 293.564 213.439 295.393 211.804C297.222 210.169 299.702 209.25 302.288 209.25ZM78.0099 69.75H97.5123V87.1875H78.0099V69.75Z" fill="#67665D"/>
<path d="M136.517 34.875H39.0049V122.062H136.517V34.875ZM58.5074 52.3125H117.015V104.625H58.5074V52.3125ZM97.5123 191.812H78.0098V209.25H97.5123V191.812Z" fill="#67665D"/>
<path d="M136.517 156.938H39.0049V244.125H136.517V156.938ZM58.5074 174.375H117.015V226.688H58.5074V174.375ZM214.527 69.75H234.03V87.1875H214.527V69.75Z" fill="#67665D"/>
<path d="M175.522 34.875H273.035V122.062H175.522V34.875ZM195.025 52.3125V104.625H253.532V52.3125H195.025ZM156.02 139.5V174.375H175.522V191.812H156.02V209.25H195.025V174.375H214.527V209.25H234.03V191.812H273.035V174.375H214.527V139.5H156.02ZM195.025 174.375H175.522V156.938H195.025V174.375ZM273.035 209.25H253.532V226.688H214.527V244.125H273.035V209.25ZM195.025 244.125V226.688H156.02V244.125H195.025Z" fill="#67665D"/>
<path d="M234.03 156.938H273.034V139.5H234.03V156.938Z" fill="#67665D"/>
</g>
</svg>
